<svg class="icon" viewBox="3 0 44 50">
  <path class="icon-body" d="M43.603 7.87L37.68 6.278l2.965 11.477c.03.165.03.19-.065.27l-4.466 3.063 2.144 4.032c.055.103.047.166-.05.38L26.845 49H46V16.84c0-7.157-.01-8.317-2.397-8.97z"/>
  <path class="icon-body" d="M34.553 21.26c-.508-.99-.6-.893.234-1.507l4.29-2.83L36.31 6h-.013c-.02 0-.063-.333-.113-.494l-.11-.05C35.206 2.865 31 .885 25 .84V1h.104H25V.84c-6 .046-10.104 2.025-10.97 4.612l-.01.054c-.05.16-.087.494-.108.494H13.9l-2.77 10.923 4.29 2.833c.834.613.743.514.234 1.505l-2.124 4.06L24.978 49h.252l11.45-23.68-2.127-4.06zm-9.45 20.942l-8.02-35.754c0-1.598 3.526-2.84 8.02-2.88 4.495.04 8.022 1.282 8.022 2.88l-8.02 35.754z"/>
  <path class="icon-body" d="M11.945 25.118l2.135-4.032-4.48-3.062c-.095-.08-.12-.105-.092-.27l2.906-11.478L6.407 7.87C4.02 8.524 4 9.684 4 16.84V49h19.36L12 25.5c-.098-.215-.11-.278-.053-.382z"/>
  <path class="icon-accent" d="M26.926 18.376c-.028-.12-.12-.376-.227-.376h-3.093c-.104 0-.195.25-.227.367l-1.14 4.415 2.91 13.7 2.82-13.666-1.044-4.44zM29.063 13.665l-1.44-2.716c-.082-.163-.043.05-.236.05H22.82c-.19 0-.152-.213-.232-.05l-1.44 2.822c-.08.197-.105.197 0 .318l1.872 2.763c.056.055.083.147.17.147h3.831c.085 0 .112-.12.167-.174l1.873-2.73c.106-.12.08-.234.003-.43z"/>
</svg>
